inDegrees=no
nColumns=24
nRows=21
DataType=double
version=3
OpenSimVersion=4.5
endheader
time	pelvis_tilt	pelvis_list	pelvis_rotation	pelvis_tz	pelvis_ty	pelvis_tx	hip_flexion_r	hip_adduction_r	hip_rotation_r	knee_angle_r	ankle_angle_r	subtalar_angle_r	mtp_angle_r	hip_flexion_l	hip_adduction_l	hip_rotation_l	knee_angle_l	ankle_angle_l	subtalar_angle_l	mtp_angle_l	lumbar_extension	lumbar_bending	lumbar_rotation
0.29	-0.02481761565171106	0.05833712207523162	-0.05079768409884407	-0.04132605	0.96414004	0.3354260999999999	0.447785180130797	-0.1538805680789609	-0.1440752662788218	-1.026537529288183	0.018262216848993	-0.2498934776990129	0	0.07595092425623401	0.1079627185906005	-0.3839166747871451	-0.094924299070897	0.1082499959457544	-0.05431948542194761	0	-0.1081813292824603	-0.08792320381730316	0.05131440683739522
0.2999999999999998	-0.0243065953692512	0.05885264454793511	-0.04839801469157814	-0.04245033999999998	0.96404482	0.34574544	0.4642055203023656	-0.152590763129486	-0.152682100572566	-0.9916896494448845	0.02236235357802311	-0.2581012590399165	0	0.05678037104385989	0.1133164946035433	-0.3840574816680107	-0.08209211550959079	0.1181206894733792	-0.05372467180234727	0	-0.1099189260277365	-0.08508706141063782	0.0437318207605132
0.3100000000000001	-0.02130726421032127	0.05794211195973827	-0.04409690966922133	-0.04327555999999999	0.96417204	0.35637332	0.4738028020685461	-0.1485160162286834	-0.162172200273118	-0.9500851740322457	0.03098836904024667	-0.2733697707424277	0	0.03570911134096433	0.1158545126082865	-0.3770721908943925	-0.07218463288479489	0.1283345541763872	-0.05113827868125945	0	-0.1139246531851373	-0.08205161043190928	0.03439246584558758
0.3199999999999998	-0.01268649833280495	0.052271492504538	-0.03486396931154103	-0.04469649999999997	0.96474783	0.36658768	0.4724981476832622	-0.142029816142774	-0.1805968161692848	-0.8994494812350551	0.03587747313099457	-0.2855280531834745	0	0.01102586988725332	0.1124025033733857	-0.3727107418989574	-0.06741416685181963	0.1344199488243541	-0.04129201679610283	0	-0.1268757840765596	-0.07280856732296477	0.02007609547815574
0.3300000000000001	-0.01224244380322521	0.05474883766249552	-0.03316571607782123	-0.04542916999999996	0.96402754	0.37701228	0.4839727179847254	-0.1407748081716619	-0.1881224687333021	-0.851481841674929	0.03585585373755011	-0.2857529414755879	0	-0.005916964790095794	0.1179708937978	-0.3723227756265913	-0.05918077105881381	0.1411892467254576	-0.04228644920428729	0	-0.1274475427694057	-0.07307698011236557	0.01326003828652908
0.3399999999999999	-0.007315923760135911	0.05263558513323287	-0.02449321688019067	-0.04668917	0.96388914	0.38728898	0.4844943968981466	-0.136338384893016	-0.2032650666239879	-0.7940980141410129	0.03130496303991218	-0.2838059387303939	0	-0.02650542418492182	0.1175760102620095	-0.3662149395351023	-0.05393479460898874	0.1485624048112734	-0.03402075173015021	0	-0.1348875759380385	-0.06802666676539505	0.0005771638030066308
0.3500000000000001	-0.006568178902499412	0.05629556779751316	-0.02286360889488407	-0.04712715000000001	0.9627367100000001	0.3977865	0.4927969361783981	-0.1341491805385948	-0.2070942919502601	-0.7406050581842798	0.0271612927378825	-0.2756358601665249	0	-0.04319271002212195	0.1235303509289709	-0.3613878571155875	-0.04744967540548511	0.1598915312411143	-0.03454956258249373	0	-0.1353999169908955	-0.07093939107804526	-0.005747443403310537
0.3599999999999999	-0.003152447876154811	0.05601842285894378	-0.01619489373070969	-0.04805058000000001	0.96201504	0.40806094	0.4933324066835685	-0.1306467248305931	-0.2193860035908914	-0.6796098217166087	0.01442327143505064	-0.2474217115200108	0	-0.0597823281070451	0.1239797307998586	-0.3577661280499655	-0.04695409666929711	0.1693388523981012	-0.0314989975760417	0	-0.1413179710409775	-0.06676589746242212	-0.0179924584107389
0.3700000000000001	0.001483520726521186	0.05883369923190786	-0.01475404802910549	-0.04826358999999997	0.96104935	0.4187356	0.4935955016292714	-0.1275813819468315	-0.2245646860788791	-0.6203741167686542	0.01333142905971973	-0.2116406449663757	0	-0.07887883782029848	0.1279023106462273	-0.3489222988132187	-0.04505429705185502	0.182647466164773	-0.03678060562067795	0	-0.1463916609788834	-0.0690193772317395	-0.02382571738444197
0.3799999999999999	0.001996145114944286	0.06200282657232258	-0.01078751572987482	-0.04879730999999998	0.95937418	0.42926334	0.4968862319693124	-0.1258582750995382	-0.229658757273658	-0.5615344640289575	0.01886142136792552	-0.1677995426836769	0	-0.09401757190108623	0.1319439926334167	-0.344050297378344	-0.04197105808554225	0.1929750312145668	-0.03521945991744902	0	-0.1469225451078454	-0.07033145485139793	-0.03293432388975776
0.3900000000000001	0.003499166298290582	0.07000962438924459	-0.01036759689297587	-0.04907083000000001	0.95755274	0.4397703000000001	0.5008434285015322	-0.1281993332217926	-0.2324410937974782	-0.5047750184356313	0.02265616439869894	-0.1203688236482636	0	-0.1098682296234868	0.1416688801335994	-0.3396497966408955	-0.03920509100477648	0.2018418745373634	-0.03903395082510999	0	-0.1491352073855451	-0.07781969680649754	-0.03913454217841699
0.3999999999999999	0.005155171767847084	0.07611141925723594	-0.01019240024598454	-0.04913455999999999	0.95566216	0.4503226300000001	0.5026545870350557	-0.1279023657986316	-0.2336708903130124	-0.4478838652354951	0.02600984719406306	-0.07482168296569136	0	-0.1251783147197147	0.1486666454735134	-0.3344300188048734	-0.03837531732154829	0.2122921477527455	-0.04357389848287085	0	-0.1508468788355794	-0.08349456086739683	-0.04176359900040517
0.4100000000000001	0.004262754350774841	0.0833328864846916	-0.0106112592020546	-0.04914162	0.95343088	0.46083187	0.5061177290271233	-0.1288642003433108	-0.2355667055183051	-0.3917101399218335	0.026615829001014	-0.03061796130375442	0	-0.1387442636710249	0.157238674934913	-0.331803321493501	-0.03509362935782894	0.2191013370737655	-0.04634384613606164	0	-0.1495204917849826	-0.09030422020558444	-0.04575455089849025
0.4199999999999999	0.002574375363184019	0.09159829939827178	-0.01147669472807053	-0.04860829999999999	0.95092305	0.4711805800000001	0.510994303573704	-0.1291873613188198	-0.2281018108326094	-0.3410504813105522	0.02374316104189461	-0.007029680954214707	0	-0.1495699802468571	0.1654285488486252	-0.3257341601529069	-0.03612018524902805	0.2295949804993292	-0.04592631817495697	0	-0.1477593631144675	-0.09917823822787014	-0.05120491151237624
0.4299999999999997	0.002697943279869375	0.09713259248434376	-0.01308313323692202	-0.04842906999999996	0.94876947	0.48180988	0.5115868637987071	-0.1296135194094768	-0.2323630758345848	-0.2902076416676277	0.008776676297512991	0.02984663625371458	0	-0.1623145517703717	0.1716349653250571	-0.3260620589992034	-0.0372503185773514	0.2394395071781434	-0.05097992111850166	0	-0.1478674808511079	-0.1047732775610344	-0.05106622677734814
0.4399999999999999	0.0003648088182136041	0.1046658402210559	-0.01472116691718815	-0.04776068999999999	0.9462094	0.49255707	0.5157105418777539	-0.1313955845261001	-0.2324012924365511	-0.2487895913301128	0.01106160236209525	0.03646972984324075	0	-0.1723748123148396	0.1791504925359519	-0.3262369950954601	-0.03838624482799503	0.2454869616842976	-0.05231040410778701	0	-0.1432724586306687	-0.1136705754830148	-0.05216166854519545
0.4499999999999997	-0.000128538084859329	0.1076854129895295	-0.01789394770294878	-0.04691254	0.94408907	0.5026855800000001	0.5146720973272891	-0.127626355416464	-0.2274036229322097	-0.2058468323536299	-0.01309613860526449	0.05725873681936595	0	-0.179843625264706	0.180954395386709	-0.323795396059914	-0.04792630492745129	0.2582881365043823	-0.05388350426919453	0	-0.1440637521672135	-0.1168331126112273	-0.05149070568673181
0.46	-0.002460343337584479	0.1125631360496156	-0.01979488289095786	-0.04603878	0.94172698	0.5134932800000001	0.5186991438560358	-0.1275889339865049	-0.2367788707177355	-0.1791393023574528	-0.01416826085444297	0.05574213540930643	0	-0.1889195862590279	0.185457112378998	-0.3269841038766614	-0.05055658173458662	0.2641963976865643	-0.05616356837007951	0	-0.1402462149618761	-0.1232229612721816	-0.05081193265439843
0.4699999999999998	-0.001873725298961325	0.1128513695188783	-0.01849773683962424	-0.04585697999999999	0.93999742	0.52416845	0.5157435128926534	-0.1241227956131775	-0.2448099912280156	-0.1521032266959582	-0.04240843427996645	0.03790473362011102	0	-0.1973140125865409	0.18401641010212	-0.3253317912490204	-0.06212449276804528	0.2781350685064219	-0.05750098101462698	0	-0.1418239231415748	-0.1217482217587641	-0.0510635862687228
0.48	-0.001099597296603381	0.1148851901728559	-0.01714221077967539	-0.04567095999999998	0.9382125100000001	0.53559638	0.519552507583967	-0.1245514191559359	-0.2554502850713135	-0.1503304718636969	-0.03369871020882337	0.004544875943969704	0	-0.2084085554202737	0.1846513638510552	-0.3283918372330352	-0.06985640659773407	0.2812320444356784	-0.05550595326613635	0	-0.1416655367808843	-0.1222732421050381	-0.05736623129893043
0.4899999999999998	-0.000238658549752869	0.1179060251348103	-0.01742253948519974	-0.04564057999999999	0.9367956000000001	0.54712391	0.5234701594931926	-0.1263355252605864	-0.26315308209669	-0.1548480667406616	-0.03346083108202158	-0.006898312290345121	0	-0.2186901104493923	0.1874843712973182	-0.3341359495009353	-0.07841503419940642	0.2841969176155819	-0.05741804488843438	0	-0.1410005865816938	-0.1237378621994526	-0.05823225407445913
